<?xml version="1.0" standalone="no"?>
<!DOCTYPE svg PUBLIC "-//W3C//DTD SVG 20010904//EN"
 "http://www.w3.org/TR/2001/REC-SVG-20010904/DTD/svg10.dtd">
<svg version="1.0" xmlns="http://www.w3.org/2000/svg"
 width="922.000000pt" height="922.000000pt" viewBox="0 0 922.000000 922.000000"
 preserveAspectRatio="xMidYMid meet">

<circle cx="461" cy="461" r="461" fill="#80feba" />


<g transform="translate(0.000000,922.000000) scale(0.100000,-0.100000)"
fill="#000000" stroke="none" >
<path d="M519 6322 c-13 -10 -32 -21 -41 -25 -10 -3 -18 -15 -18 -24 0 -10
-10 -27 -21 -37 -19 -16 -21 -25 -16 -76 6 -74 39 -120 107 -149 57 -24 144
-28 193 -7 74 30 120 131 97 209 -15 53 -33 73 -92 103 -61 31 -172 34 -209 6z"/>
<path d="M788 5693 c-27 -13 -48 -30 -48 -36 0 -7 -9 -18 -20 -25 -12 -7 -20
-23 -20 -41 0 -15 -7 -42 -15 -59 -14 -28 -14 -34 0 -61 8 -17 15 -41 15 -54
0 -13 9 -36 20 -50 11 -14 20 -29 20 -34 0 -8 50 -86 70 -110 5 -7 10 -17 10
-22 0 -6 11 -22 25 -37 14 -15 25 -33 25 -40 0 -8 5 -14 11 -14 5 0 15 -13 20
-30 6 -16 15 -30 20 -30 5 0 15 -16 23 -35 8 -19 20 -35 25 -35 6 0 11 -5 11
-11 0 -6 11 -25 25 -43 14 -17 33 -42 42 -55 10 -13 25 -31 35 -41 9 -10 19
-27 23 -39 3 -12 10 -21 15 -21 5 0 16 -12 24 -27 8 -16 31 -46 50 -67 20 -22
36 -42 36 -45 0 -3 17 -25 38 -48 20 -23 55 -64 77 -89 45 -54 51 -60 156
-176 204 -222 419 -417 680 -614 575 -436 1250 -736 1959 -873 835 -161 1591
-185 2385 -75 475 66 993 199 1416 364 128 50 173 79 199 130 47 93 6 224 -83
269 l-49 24 -71 -17 c-40 -10 -104 -33 -144 -52 -40 -19 -79 -34 -87 -34 -8 0
-35 -9 -61 -20 -26 -11 -57 -20 -69 -20 -12 0 -26 -4 -32 -8 -5 -5 -29 -14
-54 -21 -25 -7 -54 -17 -65 -21 -59 -22 -155 -50 -173 -50 -12 0 -24 -4 -27
-10 -3 -5 -21 -10 -40 -10 -19 0 -36 -4 -39 -9 -3 -5 -20 -11 -38 -14 -18 -4
-49 -9 -68 -12 -19 -4 -44 -10 -55 -15 -11 -5 -38 -11 -60 -14 -37 -5 -77 -12
-200 -37 -136 -27 -237 -43 -385 -59 -47 -5 -125 -14 -175 -20 -468 -54 -1051
-38 -1515 39 -30 5 -84 14 -120 20 -112 19 -252 48 -390 82 -19 4 -48 11 -65
14 -16 4 -39 10 -50 15 -11 4 -56 18 -100 30 -44 12 -98 29 -120 37 -22 9 -79
28 -128 44 -190 63 -538 213 -697 300 -149 82 -359 207 -430 258 -36 25 -83
58 -106 72 -115 75 -427 342 -583 499 -162 164 -411 455 -512 602 -113 162
-203 300 -267 408 -41 69 -84 136 -96 148 -52 57 -120 66 -198 25z"/>
<path d="M3860 5610 c-8 -5 -25 -10 -37 -10 -29 0 -173 -74 -195 -100 -9 -11
-19 -20 -23 -20 -10 0 -65 -57 -65 -67 0 -5 -9 -16 -20 -26 -11 -9 -20 -27
-20 -39 0 -13 -9 -29 -20 -36 -17 -10 -20 -23 -20 -93 0 -77 1 -81 31 -109 18
-16 43 -31 56 -35 37 -9 108 30 151 83 117 144 152 167 250 164 109 -3 220
-74 237 -153 4 -15 13 -33 21 -40 19 -16 19 -119 -1 -145 -19 -25 -20 -118 -1
-133 8 -7 17 -22 20 -35 11 -44 113 -62 157 -27 13 10 43 55 67 98 41 79 42
82 42 181 0 251 -141 459 -360 531 -68 23 -241 30 -270 11z"/>
<path d="M4915 5148 c-57 -19 -197 -92 -208 -108 -7 -9 -20 -19 -29 -23 -10
-3 -18 -13 -18 -22 0 -8 -6 -15 -14 -15 -8 0 -19 -13 -25 -30 -5 -16 -14 -30
-20 -30 -5 0 -13 -10 -17 -22 -4 -13 -16 -35 -27 -49 -16 -22 -19 -39 -15 -90
3 -42 10 -66 21 -74 9 -7 17 -17 17 -24 0 -18 65 -44 92 -38 43 11 90 50 153
127 71 87 125 120 197 120 101 0 216 -69 257 -153 26 -53 29 -171 6 -201 -22
-29 -19 -93 7 -134 29 -48 96 -77 142 -62 69 22 118 107 138 238 35 221 -90
460 -290 560 -75 37 -77 37 -206 39 -72 1 -144 -3 -161 -9z"/>
<path d="M8432 3858 c-24 -12 -46 -28 -50 -37 -3 -9 -13 -24 -24 -34 -10 -10
-18 -29 -18 -43 0 -13 -6 -33 -12 -44 -10 -15 -10 -22 0 -32 6 -6 12 -22 12
-34 0 -60 93 -116 195 -117 105 -1 167 48 186 147 17 88 -27 162 -117 195 -69
26 -117 26 -172 -1z"/>
</g>
</svg>
